# xmcd
#
# Track frame offsets:
# 150
# 16406
# 39227
# 56893
# 74101
# 89754
# 105943
# 125175
# 142075
# 163137
#
# Disc length: 2525 seconds
#
#
# Revision: 0
# Processed by: cddbd v1.5.1PL2 Copyright (c) Steve Scherf et al.
# Submitted via: FreeRIP 2.944 
#
DISCID=9809db0a
DTITLE=Milhouse - Tales Of Woe and Yay
DYEAR=1900
DGENRE=Blues
TTITLE0=Crossroads
TTITLE1=On Your Way Home
TTITLE2=We're Lost
TTITLE3=The Monkey Song
TTITLE4=Better Off
TTITLE5=Let Me Go
TTITLE6=Dear Dad
TTITLE7=Fallen
TTITLE8=Bleeding
TTITLE9=Angel
EXTD=
EXTT0=
EXTT1=
EXTT2=
EXTT3=
EXTT4=
EXTT5=
EXTT6=
EXTT7=
EXTT8=
EXTT9=
PLAYORDER=
